<?xml version="1.0" standalone="no"?>
<!DOCTYPE svg PUBLIC "-//W3C//DTD SVG 20010904//EN"
 "http://www.w3.org/TR/2001/REC-SVG-20010904/DTD/svg10.dtd">
<svg version="1.0" xmlns="http://www.w3.org/2000/svg"
 width="720.000000pt" height="720.000000pt" viewBox="0 0 720.000000 720.000000"
 preserveAspectRatio="xMidYMid meet">

<g transform="translate(0.000000,720.000000) scale(0.100000,-0.100000)"
fill="#000000" stroke="none">
<path d="M3085 6990 c-124 -10 -216 -30 -365 -76 -251 -79 -325 -109 -474
-192 -83 -46 -200 -109 -259 -139 -59 -30 -129 -72 -155 -92 -26 -20 -66 -48
-89 -61 -24 -13 -43 -27 -43 -31 0 -5 -19 -21 -42 -37 -49 -34 -483 -460 -547
-537 -44 -53 -85 -100 -179 -206 -33 -36 -71 -86 -86 -112 -16 -26 -31 -47
-35 -47 -3 0 -17 -21 -30 -47 -13 -27 -30 -60 -38 -75 -14 -28 -22 -63 -30
-141 -4 -39 -9 -50 -29 -57 -18 -7 -24 -17 -24 -42 0 -17 -7 -60 -16 -94 -15
-60 -14 -65 3 -88 16 -22 39 -31 66 -27 4 0 7 -6 7 -15 0 -9 7 -14 18 -12 11
2 24 25 38 65 12 34 37 84 56 110 18 26 55 86 82 133 54 96 55 98 96 160 34
52 30 47 155 210 65 85 146 172 254 275 149 141 168 155 312 237 85 48 251
136 369 196 237 120 344 154 525 168 50 3 125 17 167 31 102 31 308 70 416 79
48 3 116 13 152 21 49 11 95 13 188 7 67 -3 125 -10 128 -15 3 -5 30 -9 60 -9
69 0 185 -17 244 -35 25 -8 96 -24 158 -35 62 -12 168 -36 235 -55 67 -18 161
-42 210 -54 48 -11 125 -36 170 -55 45 -18 98 -38 117 -44 19 -6 82 -29 140
-52 58 -23 120 -46 137 -51 59 -18 283 -208 283 -240 0 -32 12 -48 48 -71 76
-45 205 -152 244 -201 51 -66 177 -196 237 -245 25 -21 85 -60 133 -85 148
-81 202 -182 212 -398 5 -105 38 -232 70 -268 7 -9 19 -33 27 -53 7 -21 38
-66 69 -100 86 -97 109 -144 121 -246 19 -173 85 -427 123 -472 25 -30 35 -71
41 -162 4 -51 14 -114 23 -141 12 -36 13 -50 4 -59 -15 -15 -16 -109 -2 -105
6 1 20 -13 32 -32 l21 -33 -34 7 c-30 7 -32 6 -20 -9 7 -9 20 -16 27 -16 8 0
14 -5 14 -10 0 -6 11 -8 25 -4 23 6 25 3 25 -25 0 -34 -11 -39 -30 -16 -18 21
-32 19 -19 -4 10 -15 8 -24 -14 -53 -20 -26 -27 -47 -28 -87 -2 -39 -7 -56
-22 -66 -10 -7 -16 -18 -13 -24 4 -5 2 -12 -4 -16 -18 -11 -40 -76 -40 -116 0
-22 -4 -47 -9 -57 -6 -9 -40 -107 -76 -217 -108 -324 -254 -595 -448 -835 -67
-83 -155 -178 -213 -231 -40 -36 -104 -108 -145 -161 -36 -47 -78 -85 -231
-209 -131 -107 -205 -153 -454 -280 -120 -61 -239 -124 -264 -139 -25 -16 -70
-38 -100 -51 -30 -13 -71 -33 -90 -44 -65 -41 -162 -85 -185 -85 -12 0 -28 -6
-34 -14 -6 -8 -26 -16 -44 -19 -65 -11 -211 -48 -266 -67 -139 -49 -217 -72
-274 -79 -34 -5 -54 -9 -44 -10 16 -1 16 -3 -3 -24 l-22 -22 -21 27 c-22 27
-23 27 -35 7 -15 -23 -40 -19 -85 13 -27 19 -40 18 -43 -3 -1 -5 -2 -11 -3
-14 -2 -10 -59 24 -64 40 -4 8 -16 15 -28 15 -12 0 -38 4 -58 9 -67 17 -186
40 -271 51 -47 7 -96 18 -110 24 -14 7 -52 19 -85 26 -33 8 -69 20 -80 27 -11
7 -29 13 -41 13 -12 0 -51 9 -86 21 -34 11 -85 26 -113 34 -58 15 -103 31
-162 57 -24 10 -47 18 -53 18 -6 0 -39 13 -74 29 -35 16 -102 41 -148 56 -45
15 -108 37 -139 50 -92 39 -270 25 -277 -22 -3 -23 33 -43 77 -43 16 0 34 -7
41 -15 11 -13 10 -14 -4 -9 -9 3 -16 2 -16 -3 0 -5 15 -14 33 -21 18 -6 77
-41 132 -77 54 -37 111 -69 127 -72 15 -3 28 -9 28 -14 0 -5 9 -9 19 -9 11 0
22 -4 26 -9 3 -5 18 -12 34 -16 16 -3 41 -17 56 -31 14 -13 35 -24 47 -24 11
0 31 -11 44 -25 15 -16 34 -25 54 -25 17 0 33 -6 36 -14 3 -8 28 -17 60 -21
48 -6 54 -9 54 -30 0 -25 3 -27 125 -59 61 -16 187 -33 325 -43 41 -3 86 -11
100 -18 30 -15 146 -13 255 5 86 14 85 14 163 -4 56 -13 68 -13 99 0 20 9 80
18 134 20 75 4 112 11 154 29 30 14 70 24 89 23 19 -1 41 3 48 9 7 6 35 15 62
22 60 15 73 6 57 -40 -6 -18 -10 -33 -8 -35 6 -6 257 25 307 39 154 42 351
115 409 151 21 14 70 41 108 60 37 19 78 44 90 56 16 14 30 19 47 14 13 -3 27
-1 30 5 4 6 15 11 24 11 26 0 206 94 280 146 37 26 95 71 129 98 34 28 81 65
105 83 58 43 373 354 432 426 38 48 203 284 241 346 6 9 19 30 31 46 32 46
131 244 149 299 12 36 13 51 4 56 -18 12 -3 92 22 113 15 11 26 39 35 85 7 37
20 101 28 142 8 41 15 89 15 106 1 18 10 39 21 49 12 11 18 25 15 36 -3 9 -1
20 5 24 5 3 10 20 10 36 0 17 11 54 25 83 20 42 26 73 30 161 6 130 11 158 35
205 11 19 21 51 23 70 4 32 15 77 50 210 6 25 10 50 8 55 -2 6 -5 46 -6 90 -4
124 -4 125 -13 125 -5 0 -14 -11 -20 -26 -13 -27 -6 -130 9 -150 5 -6 2 -34
-7 -65 -8 -30 -18 -64 -21 -76 -6 -25 -30 -49 -40 -40 -3 4 -1 13 6 21 8 9 8
21 2 39 -8 20 -7 30 4 40 8 8 12 17 9 19 -11 12 -15 147 -5 167 9 16 8 28 -5
52 -11 23 -15 52 -13 105 2 40 0 76 -4 80 -14 14 -7 85 13 121 11 21 33 42 50
49 28 12 35 26 31 66 -1 9 5 30 13 47 15 28 15 30 -6 33 -17 2 -24 13 -30 43
-5 22 -15 54 -24 72 -25 55 -63 178 -70 232 -5 39 -3 56 8 69 13 15 13 32 2
132 -20 173 -57 266 -149 375 -23 28 -46 60 -49 72 -4 12 -38 59 -77 104 -38
46 -69 86 -69 91 0 4 -15 29 -34 55 -18 27 -54 92 -80 145 -32 66 -61 110 -92
140 -25 24 -61 66 -80 95 -19 28 -48 61 -64 73 -17 12 -30 26 -30 32 0 14 -86
134 -134 186 -22 24 -54 51 -70 59 -17 9 -94 53 -171 99 -77 45 -160 88 -185
94 -56 14 -75 28 -83 62 -15 57 -161 166 -337 248 -36 17 -74 36 -85 43 -199
116 -511 236 -705 272 -19 4 -60 15 -90 25 -54 18 -182 37 -430 65 -154 17
-629 27 -765 15z m-466 -6446 c3 -3 0 -9 -7 -16 -8 -8 -19 -8 -44 2 -56 22
-57 32 -3 25 28 -4 52 -9 54 -11z m1407 -233 c-10 -16 -164 -33 -173 -19 -2 5
19 8 46 8 28 0 51 5 51 10 0 6 18 10 41 10 22 0 38 -4 35 -9z m374 -31 c-20
-13 -67 -13 -54 -1 9 10 56 19 64 13 2 -2 -2 -7 -10 -12z"/>
<path d="M675 5260 c-3 -5 1 -10 10 -10 9 0 13 5 10 10 -3 6 -8 10 -10 10 -2
0 -7 -4 -10 -10z"/>
<path d="M587 4854 c-4 -4 -4 -17 -1 -30 4 -17 -1 -27 -20 -39 -14 -10 -26
-25 -26 -34 0 -9 -10 -32 -21 -51 -27 -44 -29 -108 -4 -126 12 -9 16 -22 13
-39 -3 -14 -1 -25 3 -25 5 0 9 -7 9 -15 0 -25 -30 -17 -40 11 -6 14 -16 24
-23 22 -18 -6 -20 -63 -4 -90 8 -13 17 -35 21 -50 7 -29 26 -39 26 -14 0 8 7
16 16 18 9 2 33 45 59 107 25 57 51 111 60 121 20 22 19 32 -2 28 -12 -2 -19
4 -21 17 -2 16 5 23 30 30 27 8 32 15 30 34 -1 17 2 22 12 18 17 -7 34 32 18
42 -5 3 -17 20 -26 38 -16 32 -46 37 -46 7 0 -8 -4 -14 -10 -14 -5 0 -13 0
-17 0 -5 0 -8 8 -8 17 0 18 -17 28 -28 17z m63 -119 c0 -8 -4 -15 -10 -15 -5
0 -10 7 -10 15 0 8 5 15 10 15 6 0 10 -7 10 -15z m-26 -101 c4 -9 4 -19 2 -21
-8 -8 -26 8 -26 23 0 19 16 18 24 -2z"/>
<path d="M500 4289 c0 -5 5 -7 10 -4 6 3 10 8 10 11 0 2 -4 4 -10 4 -5 0 -10
-5 -10 -11z"/>
<path d="M474 4242 c-17 -11 -36 -51 -29 -62 4 -6 -1 -17 -9 -26 -9 -8 -16
-26 -16 -40 0 -13 -5 -24 -12 -24 -6 0 -9 -2 -6 -5 13 -13 38 9 38 35 0 15 9
35 19 44 11 10 23 31 26 48 8 33 5 40 -11 30z"/>
<path d="M3993 4154 c-42 -41 -43 -76 -4 -115 39 -38 79 -38 120 0 56 53 30
134 -46 143 -33 4 -43 0 -70 -28z"/>
<path d="M5990 3992 c-43 -21 -80 -93 -139 -272 -36 -111 -49 -162 -82 -315
-4 -22 -8 -68 -9 -102 0 -50 4 -67 20 -83 11 -11 23 -20 28 -21 4 0 17 -2 30
-5 32 -6 88 20 108 50 10 16 20 62 26 118 5 51 14 96 21 100 7 4 42 8 80 8 57
0 67 -3 67 -17 0 -10 7 -67 15 -127 17 -131 34 -156 100 -156 78 0 133 76 101
138 -12 23 -36 131 -36 164 0 4 9 10 21 13 11 4 28 22 37 41 15 33 15 37 -2
68 -10 18 -35 43 -56 55 -28 16 -40 30 -45 54 -13 57 -73 172 -116 221 -24 27
-62 57 -87 67 -52 23 -40 22 -82 1z m90 -314 c0 -5 -7 -8 -15 -8 -15 0 -20 21
-8 33 7 7 23 -11 23 -25z"/>
<path d="M303 3918 c-13 -6 -23 -16 -23 -22 0 -6 -7 -24 -15 -39 -17 -33 -17
-97 0 -97 7 0 15 9 18 20 5 21 27 28 27 9 0 -5 4 -8 9 -4 5 3 12 1 16 -5 3 -5
14 -10 24 -10 14 0 20 10 25 41 4 22 4 45 0 50 -3 5 0 16 6 24 9 11 9 18 -3
30 -18 17 -52 19 -84 3z"/>
<path d="M6947 3852 c-13 -14 -17 -40 -18 -111 -1 -94 3 -113 21 -95 10 10 26
224 17 224 -2 0 -11 -8 -20 -18z"/>
<path d="M3132 3810 c-46 -19 -63 -109 -42 -216 16 -84 19 -94 25 -104 29 -47
-173 64 -327 180 -111 84 -139 89 -186 36 -20 -23 -34 -54 -42 -93 -7 -32 -19
-80 -27 -107 -8 -27 -12 -63 -9 -80 3 -17 10 -73 15 -125 12 -117 23 -131 98
-131 45 0 58 4 80 26 26 26 26 26 19 145 l-7 120 33 -17 c141 -71 337 -181
358 -199 79 -71 168 -72 210 -3 11 18 20 47 20 63 0 37 -34 197 -55 259 -9 27
-15 75 -14 121 2 87 -10 108 -70 125 -42 12 -49 12 -79 0z"/>
<path d="M955 3786 c-42 -16 -73 -49 -76 -81 -4 -46 3 -71 28 -94 28 -25 52
-25 242 -5 l54 6 -7 -33 c-33 -180 -31 -364 5 -400 38 -38 126 -12 152 44 9
19 18 82 22 155 4 68 13 143 20 165 l12 42 119 5 c125 5 140 10 167 50 24 35
21 65 -11 101 -28 31 -33 33 -133 40 -57 4 -205 10 -329 14 -186 5 -232 3
-265 -9z"/>
<path d="M2052 3786 c-13 -7 -32 -26 -43 -42 -17 -26 -19 -48 -19 -230 0 -193
1 -202 25 -250 31 -62 77 -94 138 -96 24 0 50 2 56 6 24 15 28 71 11 160 -10
49 -21 148 -25 220 -7 143 -24 206 -61 231 -28 18 -51 19 -82 1z"/>
<path d="M4712 3780 c-32 -14 -47 -29 -58 -57 -22 -51 -6 -106 36 -123 29 -12
48 -11 224 6 50 5 58 4 53 -9 -17 -45 -29 -192 -24 -291 5 -100 8 -113 29
-129 30 -25 93 -15 129 19 24 23 27 36 38 157 7 73 18 155 25 182 l13 50 119
3 c106 2 121 5 142 25 37 34 44 62 27 103 -22 53 -53 60 -290 73 -312 16 -411
15 -463 -9z"/>
<path d="M3985 3749 c-147 -24 -258 -82 -312 -163 -30 -44 -33 -55 -33 -125 0
-69 3 -82 33 -131 39 -65 105 -112 194 -140 51 -16 93 -20 197 -20 72 0 148 5
168 10 108 30 152 154 73 206 -23 15 -29 15 -88 -1 -89 -24 -299 -18 -340 9
-30 20 -42 53 -32 85 3 11 30 32 61 47 44 21 73 27 147 31 126 6 132 8 151 47
24 51 20 89 -13 125 -27 29 -34 31 -93 30 -34 -1 -85 -5 -113 -10z"/>
<path d="M340 3714 c0 -11 -5 -14 -17 -9 -36 13 -76 18 -70 8 4 -6 29 -13 57
-17 36 -5 50 -11 50 -23 0 -12 -3 -13 -14 -4 -18 15 -30 -1 -21 -28 6 -21 35
-36 45 -24 4 4 10 27 14 50 5 35 3 44 -13 53 -26 14 -31 13 -31 -6z"/>
<path d="M226 3634 c-9 -23 -7 -54 3 -54 5 0 16 -3 25 -6 11 -4 16 -1 16 11 0
12 -5 15 -16 11 -13 -5 -15 -1 -10 18 7 28 -9 45 -18 20z"/>
<path d="M215 3550 c4 -6 11 -8 16 -5 14 9 11 15 -7 15 -8 0 -12 -5 -9 -10z"/>
<path d="M228 3503 c7 -3 16 -2 19 1 4 3 -2 6 -13 5 -11 0 -14 -3 -6 -6z"/>
<path d="M220 3460 c0 -5 7 -10 16 -10 8 0 12 5 9 10 -3 6 -10 10 -16 10 -5 0
-9 -4 -9 -10z"/>
<path d="M686 3247 c3 -10 9 -15 12 -12 3 3 0 11 -7 18 -10 9 -11 8 -5 -6z"/>
<path d="M6760 3125 c0 -8 9 -15 20 -15 24 0 27 15 4 24 -22 9 -24 8 -24 -9z"/>
<path d="M3602 3068 c-41 -20 -44 -101 -4 -106 34 -5 78 16 90 42 12 26 7 35
-28 59 -28 19 -27 19 -58 5z"/>
<path d="M5176 1438 c-34 -19 -12 -68 30 -68 28 0 38 14 30 44 -7 27 -35 38
-60 24z"/>
<path d="M5350 1416 c-6 -8 -10 -25 -8 -38 2 -17 10 -24 34 -26 41 -4 61 19
46 53 -13 28 -52 34 -72 11z"/>
<path d="M5546 1379 c-31 -24 -33 -49 -8 -72 24 -22 44 -21 73 2 20 16 22 22
12 44 -19 41 -46 50 -77 26z"/>
<path d="M1245 1270 c-3 -5 -1 -10 4 -10 6 0 11 5 11 10 0 6 -2 10 -4 10 -3 0
-8 -4 -11 -10z"/>
<path d="M1390 1260 c0 -5 4 -10 9 -10 5 0 11 -10 13 -22 2 -12 9 -23 16 -26
16 -5 16 40 0 56 -15 15 -38 16 -38 2z"/>
<path d="M1298 1216 c-19 -14 -24 -36 -8 -36 5 0 17 -14 25 -30 13 -26 19 -29
36 -20 29 16 42 3 35 -36 -6 -28 -1 -40 30 -81 37 -48 54 -61 87 -62 14 -1 17
8 17 49 0 28 -4 50 -10 50 -5 0 -10 11 -10 25 0 18 -8 29 -27 37 -16 6 -31 11
-35 10 -5 -1 -7 3 -5 10 1 6 -9 14 -23 18 -19 4 -26 14 -30 40 -4 30 -9 35
-35 37 -16 2 -38 -3 -47 -11z"/>
</g>
</svg>
